<?xml version="1.0" encoding="utf-8"?>
<!-- Generator: Adobe Illustrator 23.0.5, SVG Export Plug-In . SVG Version: 6.00 Build 0)  -->
<svg version="1.1" id="Map_Aus" xmlns="http://www.w3.org/2000/svg" xmlns:xlink="http://www.w3.org/1999/xlink" x="0px" y="0px"
	 viewBox="0 0 3840 2160" style="enable-background:new 0 0 3840 2160;" xml:space="preserve">
<style type="text/css">
	.st0{fill:#A4CFFB;}
	.st1{fill:#E6E6E6;}
	.st2{font-family:'FangSong';}
	.st3{font-size:97.9597px;}
	.st4{font-size:73.4698px;}
	.st5{fill:none;stroke:#E6E6E6;stroke-width:2;stroke-miterlimit:10;}
	.st6{font-size:48.9799px;}
	.st7{fill:#FEFEFE;}
	.st8{font-size:61.2248px;}
	.st9{font-size:30.6124px;}
</style>
<g id="NZ_lightG">
	<path id="NZ_South-light" class="st0" d="M2634.9,1997.7c3.6-0.2,6.2-2.7,9.4-3.8c8-2.8,13.7-6.5,7.2-15.9
		c-1.8-2.6-1.5-5.1,1.2-7.5c10.9-9.6,16.8-22.5,23.5-34.9c7.5-13.9,14.9-27.9,22.6-41.7c5.7-10.1,14-16.6,25.8-18.8
		c10.4-1.9,18.1-8.8,26-15.3c25-20.7,49.8-41.6,74.9-62.1c8.4-6.8,12.8-15.6,15.2-25.7c1.8-7.7,4-15.3,5.4-23
		c2.7-14.8,12-24.9,23.7-32.6c13.6-9,20-21.7,22.8-37c1.4-7.5,4-14.7,7.6-21.5c2.7-5.1,6.2-7.3,11.6-3.3c1.8,1.3,3.9,2.4,6,3.2
		c9.6,3.4,17.4,7.6,15.3,20.3c-0.6,3.9,2.4,8.1,5.4,11.2c4.1,4.2,7.9,5.9,12.5-0.1c7.6-10.1,16.9-8.7,26.8-1.7
		c10,6.9,9.1,15.4,9.4,24.8c0.3,11-0.5,22,1.3,33c2.2,13.1-1.8,25.2-8.4,36.5c-12,20.7-25.4,40.1-44.8,54.7c-3.4,2.5-3,4.8-0.9,7.8
		c4.6,6.6,6.6,12.6-1.7,18.5c-4.8,3.3-3.2,7.4,0.9,11.2c2.6,2.4,7.3,4.4,4.9,9.6c-2.2,4.8-6.2,5.4-11.1,5.6
		c-10.9,0.5-22-2.5-32.6,2.4c-15.8,7.2-25.2,20.7-33.6,34.8c-17.1,28.7-29.5,59.8-44.6,89.5c-8,15.7-18.2,29.8-28.5,44
		c-9.1,12.5-21,13.9-34.3,10.6c-9.5-2.3-19.2,0-28.6-2.2c-1.2-0.3-2.6-0.2-2.8,1c-1.4,10.1-9.9,9.3-16.7,11.3
		c-1.6,0.5-3.4,0.4-4.4,2.2c-1.7,0-3.4,0-5.1,0c-3.3-6-0.4-12.2-0.5-18.3c-0.1-6.5-1.7-9.6-8.9-10.3c-9.3-1-18.6-0.9-27.9-1.6
		c-7.4-0.6-13.7-2.2-15.5-11.3c-1-5.1-6.5-8.6-7-14.3c-1.3-4.1,0.2-7,3.9-9.2c5.5-3.2,6.2-6.5-0.2-9.4c-2.5-1.2-3.6-3.4-5.1-5.5
		C2634.9,2001.1,2634.9,1999.4,2634.9,1997.7z"/>
	<path id="NZ_North-light" class="st0" d="M3207.8,1491.1c-1.8,18.2-3.5,36.4-5.5,54.6c-0.9,7.8-4.9,14.3-10.5,19.8
		c-5.4,5.4-11.2,10.5-15.1,17.1c-1.6,2.8-4,3.4-7,3.8c-8.9,1-17.8,2.3-26.8,3.5c-5.7,0.7-7.9,3-8.8,9.6
		c-7.6,58.1-33.4,105.9-81.3,141c-5.6,4.1-10.5,1.1-15-0.9c-7.1-3.2-12.5-9-16.9-15.2c-4.5-6.3-0.1-13,1-19.5
		c2.5-14.7,6.1-29.2,9.6-43.6c3.4-13.7-3.4-20.8-12.7-27.5c-12.9-9.3-27-16.5-41.4-23c-8.9-4-14.1-9.1-12.9-19.7
		c1-8.1-0.4-16.3,1.7-24.4c2.1-8.1,6.6-13.4,14.5-16.3c32.4-11.9,43.4-32,38.8-67c-2.2-16.3-7.3-31.8-10.6-47.7
		c-2.2-10.4-5.2-20.8-5.1-31.6c0-4.8-1.3-7.2-6.9-8.4c-19.4-4.2-31-18.5-40.9-34.4c-3.1-5.1-6.2-10.2-10.5-14.4
		c-1.7-1.6-3.2-3.3-3-5.8c0.6-9.6-0.6-19.2-1.7-28.7c-1.1-10.4,0.3-19.5,10.2-25.3c2.8,0,5.7,0,8.5,0c11.7,1.8,21.7,7.7,31.8,13.1
		c9.7,5.2,15.5,13.2,19.1,23.7c6.1,18.4,8.4,37.4,10.8,56.5c1,7.6,3,15,3.7,22.6c0.3,3.6,2.6,5.4,6,6.1c5.6,1,11.1,2.2,16.3,4.6
		c4.5,2.1,7.5,1.3,9.3-3.6c1.7-4.6,4.8-7.6,10.1-7.8c5.9-0.2,10.1,1.8,10.6,8.3c0.4,5.7,2.6,11,3.8,16.5
		c3.6,15.7,12.5,27.8,26.4,35.8c11.3,6.4,22.3,13.4,34.5,18.2c12.2,4.8,16.1,4.3,24.2-5.8c4.8-6,10.8-10,17.4-13.2
		c9.2-4.5,19.5-2.2,26,5.2c0,4,0,7.9,0,11.9C3207.2,1482.9,3210,1487.4,3207.8,1491.1z"/>
	<text transform="matrix(1 0 0 1 3430.5674 1787.752)" class="st1 st2 st3">新西兰</text>
	<text transform="matrix(1 0 0 1 3375.4639 1876.3545)" class="st1 st2 st4">New Zealand</text>
	<line id="NZ_line" class="st5" x1="2781.6" y1="1992" x2="3267.3" y2="1815.2"/>
	<line id="NZ_line_2" class="st5" x1="3089.1" y1="1602.8" x2="3267.3" y2="1815.2"/>
	<line id="NZ_line_hor" class="st5" x1="3267.3" y1="1815.2" x2="3388.9" y2="1815.2"/>
</g>
<g id="TAS_lightG">
	<path id="TAS-light" class="st0" d="M2386.7,2004.5c-4,0-7.9,0-11.9,0c-15.2-0.8-25.6-9.5-33.9-21.2
		c-22.4-31.4-35.9-65.9-36.7-104.9c0-1.6,0.5-3.4-0.8-4.8c0-13.6,0-27.2,0-40.8c1.5-5.1,1-10.4,1.8-15.5c0.6-3.9,1.3-7.7,5-10
		c0.6,0,1.1,0,1.7,0c19,0.1,34.1,9.2,49.1,19.8c21.2,15.1,44.9,17.1,69.6,9.3c15.6-4.9,30.9-11.3,47.2-13.9
		c15.9-2.6,21.2,1.5,23.4,17.3c0.6,4.4-0.9,9,1.1,13.3c0,1.1,0,2.3,0,3.4c-2,4.9-0.6,10-1,15c-1.1,13.5-5.6,25.8-11.6,37.7
		c-15.4,30.4-35.9,56.6-62.7,77.9C2415.1,1996.6,2402.2,2003.6,2386.7,2004.5z"/>
	<text transform="matrix(1 0 0 1 1763.6812 2009.8701)" class="st1 st2 st4">塔斯马尼亚</text>
	<text transform="matrix(1 0 0 1 1849.396 2070.5381)" class="st1 st2 st6">Tasmania</text>
	<line id="TAS_line" class="st5" x1="2346.1" y1="1903.6" x2="2209.6" y2="2018.1"/>
	<line id="TAS_line_hor" class="st5" x1="2141.2" y1="2018.1" x2="2209.6" y2="2018.1"/>
</g>
<g id="VIC_lightG">
	<path id="VIC-light" class="st0" d="M2577.1,1683.2c0,1.1,0,2.3,0,3.4c-1.3,4.7-3.9,7.8-9.3,8.3c-33.4,2.7-64.9,12.6-95.7,25
		c-9.6,3.8-19.5,5.2-29.4,7.5c-13,0-26.1,0-39.1,0c-25.1-0.8-48.8-8.1-72.7-14.7c-10.9-3-21.3,0.2-31.8,1.8
		c-21.7,3.4-43.2,8.9-65.2,10.4c-3.8,0.3-7.3-0.2-10.7-1.8c-12.5-6-24.8-12.3-37.2-18.5c-2.9-1.5-4.8-3.8-6.8-6.2
		c0-77.6,0-155.3,0-232.9c3.2-6.6,10.3-4.4,15.3-6.8c1.1,0,2.3,0,3.4,0c31.8,3.1,52.6,24,73.3,45c13.8,14.1,26.8,29.1,41.7,42.2
		c21.6,18.9,47.7,26.2,75.3,30.2c24.4,3.5,48.9,5.6,73.3,8.8c9.8,1.3,17.2,4.9,23.2,13.3c11.7,16.5,26.9,29.7,42.9,42
		c12.8,9.8,25.9,19.3,38.5,29.2C2570.9,1673.3,2574.7,1677.6,2577.1,1683.2z"/>
	<text transform="matrix(1 0 0 1 1591.7139 1836.3125)" class="st1 st2 st4">维多利亚州</text>
	<text transform="matrix(1 0 0 1 1677.4282 1896.9795)" class="st1 st2 st6">Victoria</text>
	<line id="VIC_line" class="st5" x1="2284.4" y1="1694.5" x2="2102.6" y2="1847.1"/>
	<line id="VIC_line_hor" class="st5" x1="1981.4" y1="1847.1" x2="2104.6" y2="1847.1"/>
</g>
<g id="NSW_lightG">
	<path id="NSW-light" class="st0" d="M2798.1,1171.5c4,0,7.9,0,11.9,0c5.9,1.4,12,1.6,18,1.8c6.9,0.2,11.6,2.7,12.6,10.1
		c0,7.4,0,14.7,0,22.1c-2.2,6.3-1.1,12.9-1.4,19.2c-1,29.3-11.4,55.8-23.6,81.8c-15.5,33.3-36.6,63.1-58.9,92.1
		c-22.4,29.2-46.1,57.4-68.1,86.9c-24.9,33.3-42.2,70.2-55.4,109.4c-6.2,18.5-12.9,36.9-21.4,54.5c-1.9,3.9-4,7.5-7.6,10
		c-6.8,0-13.6,0-20.4,0c-25.2-10-46.6-26.5-69.6-40.2c-5.7-3.4-8.1-9.3-9.4-15.6c-0.9-4.2-1.5-8.4-1.9-12.6
		c-0.9-9-6.1-14.4-13.9-17.8c-10.5-4.6-21.7-6.2-33-7.5c-22.2-2.6-44.5-3.8-66.7-6.3c-35.9-4.1-65.2-20.8-91.6-44.5
		c-20-17.9-39.1-37-62.1-51.4c-14.7-9.2-30.4-16.5-46.9-21.8c-9.8-3.1-14.1-9.2-14.7-19.2c-1.2-21.2-2.5-42.3-2.6-63.5
		c0-2.5,0.8-5.1-0.8-7.4c0-31.2,0-62.3,0-93.5c1.7-16.5,1.4-33.2,3.4-49.7c2.2-18.3,7.4-22.7,25.5-23.5c75-3.5,150-2,225-1.1
		c31.7,0.4,63.3-1,94.9-0.9c28.2,0.1,56.4-3.2,84.4-7.1c13.1-1.8,26.4-2.2,39.5-4.3c6.2,0,12.5,0,18.7,0
		c16.3,0.8,30.5,7.1,43.6,16.5c3.4,2.5,7.2,4.5,11.1,6.3c14.9,6.6,28.9,9,43.6-2.4C2771.5,1183.2,2783.7,1174.8,2798.1,1171.5z"/>
	<text transform="matrix(1 0 0 1 3160.8184 1073.0059)" class="st1 st2 st3">新南威尔士</text>
	<text transform="matrix(1 0 0 1 3130.2051 1161.6074)" class="st1 st2 st4">New South Wales</text>
	<line id="NSW_line" class="st5" x1="2785.9" y1="1283.2" x2="3023.2" y2="1084.1"/>
	<line id="NSW_line_hor" class="st5" x1="3023.2" y1="1084.1" x2="3128" y2="1084.1"/>
</g>
<g id="ACT_lightG">
	<path id="ACT-light" class="st7" d="M2535.5,1496.2c-13.5,0-24.8-11-24.7-23.9c0.1-12.1,12.1-23.6,24.5-23.7
		c12.2-0.1,24.6,12.1,24.8,24.4C2560.2,1485.1,2548.5,1496.2,2535.5,1496.2z"/>
	<text transform="matrix(1 0 0 1 2741.4063 1570.7676)" class="st1 st2 st8">堪培拉</text>
	<text transform="matrix(1 0 0 1 2756.7119 1612.2158)" class="st1 st2 st9">Australian</text>
	<text transform="matrix(1 0 0 1 2703.1406 1642.8281)" class="st1 st2 st9">Capital Territory</text>
	<line id="ACT_line" class="st5" x1="2536.9" y1="1472.4" x2="2681.6" y2="1593.9"/>
	<line id="ACT_line_hor" class="st5" x1="2681.6" y1="1593.1" x2="2743.6" y2="1593.1"/>
</g>
<g id="QLD_lightG">
	<path id="QLD-light" class="st0" d="M2039.9,468.3c0-6.2,0-12.5,0-18.7c1.8-11.7,0.6-23.6,2.4-35.3c2.3-14.3,7.4-17.8,21.4-13.9
		c15.8,4.4,31.9,7.6,47.8,11.8c4.9,1.3,9.8,2.8,14.8,4c18.5,4.4,31.3,14.6,37,33.4c2.4,7.8,6.1,15.2,9.8,22.6
		c4.9,9.8,9.2,10.4,16.2,2.1c12.5-14.7,23.1-30.7,32.1-47.9c19.5-37.4,32.3-77.2,43.3-117.6c14.8-54.3,26.8-109.3,40.9-163.8
		c4.3-16.7,5-34.2,10.6-50.6c2.4-7.1,5.1-13.9,12.8-17c1.7,0,3.4,0,5.1,0c15.1,5.7,22.3,18.6,28.7,32c8.4,17.6,11.2,36.7,13.7,55.9
		c3.3,25.8,4.4,51.9,10.2,77.4c6.5,28.4,19.2,52.5,46.3,66.8c7,3.7,13.7,8,20.4,12.2c17.4,10.8,28.6,26.1,35,45.5
		c8.9,27.1,12.4,55.2,15.7,83.3c3.4,29.5,5.3,59.3,12,88.3c3.8,16.6,7.5,33.4,19.4,46.5c10.4,11.5,24,18.8,37.5,26
		c14,7.5,28.6,13.8,42.9,20.5c27.3,12.9,44.8,33,50.3,63c0.9,5,2.6,9.9,3.3,14.9c4.6,34.1,24.7,60.4,44.2,86.8
		c15.5,21,31.8,41.3,47.7,61.9c39.1,50.9,62.9,108.4,75.5,171c4.9,24.2,8.6,48.4,8.1,73.2c0,1.1,0,2.3,0.8,3.2c0,1.7,0,3.4,0,5.1
		c-1.9,5.5-0.4,11.2-0.9,16.7c-1,11.2-3.4,13.6-14.8,13.8c-11.3,0.3-22.5-0.1-33.8,1.6c-17.6,2.5-33.3,8.6-45.9,21.5
		c-2.4,2.5-5.4,4-8.3,5.9c-1.7,0-3.4,0-5.1,0c-19.7-5.3-36.7-16.2-54.3-25.7c-17-9.3-33.5-8.3-50.4-0.2c-10.7,5.1-21.1,11-33,13.1
		c-7.5,1.3-15.2,2.3-22.7,2.3c-19,0.2-37.8,2.7-56.8,2.2c-36.2-0.9-72.4,3.3-108.6,1.5c-32.8-1.7-65.7-0.4-98.4-1.9
		c-37.8-1.8-75.7-2.5-113.2-8.2c-2-0.3-3.9-0.5-5.9-0.9c-15.5-3.5-16.8-6-17.8-21.7c-2.1-33.7-0.6-67.4-1.9-101
		c-0.6-15.5-1.3-31.1-1.3-46.6c0-7-3.2-10.4-9.8-11.5c-13.4-2.2-27-2.9-40.5-3.5c-18.4-0.8-36.8,1.4-55.1-1.7c-3.4-0.6-6.7-1.1-10-2
		c-12-3.1-14.6-6.5-14.6-19c0-124.4-0.1-248.7,0.1-373.1c0-33.4-2.3-66.7-1.8-100.2C2040.8,470.9,2040.8,469.5,2039.9,468.3z"/>
	<text transform="matrix(1 0 0 1 2891.7725 527.0459)" class="st1 st2 st3">昆士兰</text>
	<text transform="matrix(1 0 0 1 2855.0381 615.6484)" class="st1 st2 st4">Queensland</text>
	<line id="QLD_line" class="st5" x1="2548.9" y1="690" x2="2763.1" y2="540"/>
	<line id="QLD_line_hor" class="st5" x1="2763.1" y1="540" x2="2853.3" y2="540"/>
</g>
<g id="SA_lightG">
	<path id="SA-light" class="st0" d="M1541.8,1164.7c0-15.9,0-31.7,0-47.6c1.7-2.9,0.8-6.1,0.8-9.1c-0.2-26.6,0.6-53.1,2.6-79.7
		c0.3-3.4,1.1-6.7,1.8-10c2.7-13.3,4-14.6,16.9-16.8c65.7,0,131.5,0,197.2,0c2.9,1.6,6.1,0.8,9.2,0.8c48.4,0.1,96.8,0.3,145.2,0
		c51.2-0.3,102.4,1.5,153.6,0.8c11.2-0.1,22.5,0.1,33.7-1.6c6.2,0,12.5,0,18.7,0c7.3,1.7,14.8,0.6,22.2,1.9
		c4.9,0.9,9.2,2.1,11.8,6.6c0,222.7,0,445.4,0,668.1c0,3.4,1.8,8.4-5.1,6.8c-8-1-12.7-6-16.8-12.6c-19.2-31.1-39-61.8-59.4-92.1
		c-12.5-18.5-28.9-27.8-50.5-30c-10.1-1-20.1-3.2-29.8-6.7c-9-3.3-12.8-9.2-13.8-19.1c-2.1-21.2,0.1-42.5-3-63.6
		c-0.2-1.7-0.1-3.4-1.5-5.4c-8.3,3.9-14.4,10.6-21.2,16.3c-9.7,8-19.8,15.2-31.5,19.9c-14.2,5.7-17.4,5-27-6.7
		c-17.3-21.1-32.4-43.6-48.1-65.8c-18.5-26.2-37.3-52.1-60.5-74.4c-28.8-27.6-61.8-47.5-101.7-54.8c-22-4-43.4-1.3-64.7,3.5
		c-14.6,3.3-29.1,7.2-44,9.7c-5.3,0.9-10.7,1.2-16.1,0.9c-9.8-0.4-12.4-2.8-14.1-12.3c-3-16.8-2.5-33.8-3.3-50.7
		c-1.2-24-1-48.1-0.9-72.2C1542.6,1167.3,1542.9,1165.9,1541.8,1164.7z"/>
	<text transform="matrix(1 0 0 1 1192.7832 1604.4268)" class="st1 st2 st3">南澳</text>
	<text transform="matrix(1 0 0 1 960.1289 1693.0283)" class="st1 st2 st4">Southern Australia</text>
	<line id="SA_line" class="st5" x1="1872.9" y1="1283.2" x2="1504.9" y2="1592"/>
	<line id="SA_line_hor" class="st5" x1="1381.6" y1="1592" x2="1504.9" y2="1592"/>
</g>
<g id="NT_lightG">
	<path id="NT-light" class="st0" d="M1929.4,986.2c-65.7,0-131.5,0-197.2,0c-2.6-1.6-5.5-0.8-8.3-0.8c-40.4,0.2-80.7-1.1-121.1-2.8
		c-14-0.6-28.1-2.2-42-5c-4.8-1-9.4-2.3-12.3-6.7c0-214.8,0-429.5,0-644.3c2.3-22.8,13.5-42,26.4-59.7
		c20.7-28.6,34.3-60.3,45.1-93.5c1.8-5.4,3.9-10.6,5.9-15.9c2.6-6.7,7.6-9.4,14.7-8.9c39.7,2.4,79.4,5.8,119.1,9.3
		c20.5,1.8,41.1,3.2,61.7,4.2c16.4,0.8,32.8,2.1,49.1,1.2c22.8-1.2,45.7-2.3,67.8-9.6c9.1-3,17.7-7.3,26.7-10.6c2.3,0,4.5,0,6.8,0
		c1.7,1.2,3.7,1.2,5.6,1.7c11.5,2.8,14.4,6.6,16.2,18.6c4.4,30.3-1.2,59.2-11.8,87.4c-6.7,17.8-14.1,35.3-21.9,52.5
		c-7.4,16.4-4.8,29.1,8.8,40.6c6.5,5.5,12.7,11.3,19.2,16.7c4.8,4,9.3,8.2,13.7,12.7c10.5,10.8,18.2,22.9,19.4,38.4
		c0,187.6,0,375.1,0,562.7c-7.7,8.1-18,8.7-28,9.3c-19.9,1.2-39.8,2.2-59.8,1.8C1932,985.3,1930.6,985.3,1929.4,986.2z"/>
	<text transform="matrix(1 0 0 1 601.209 181.0518)" class="st1 st2 st3">北领地</text>
	<text transform="matrix(1 0 0 1 417.5352 269.6533)" class="st1 st2 st4">Northern Territory</text>
	<line id="NT_line" class="st5" x1="1300.9" y1="194.7" x2="1607.9" y2="306.5"/>
	<line id="NT_line_hor" class="st5" x1="1073.1" y1="194.4" x2="1301" y2="194.4"/>
</g>
<g id="WA_lightG">
	<path id="WA-light" class="st0" d="M1419.4,289.2c1.1,0,2.3,0,3.4,0c30,3,55.3,16.7,78.5,34.8c11.5,9,21,19.7,23.5,34.9
		c0,315.1,0,630.1,0,945.2c-4.1,10.1-12.3,15.9-21.3,20.9c-17.7,9.9-37.2,15.6-56.6,20.2c-40.5,9.6-74.7,30.2-106.7,55.6
		c-16.2,12.9-32.6,25.4-49.4,37.4c-18.7,13.3-39.4,20.5-62.4,22.1c-16.3,1.2-32.7,2.4-49,3.9c-30.8,3-56.6,16.6-80,36.1
		c-13.2,11.1-26.5,22.2-41.1,31.4c-14.9,9.5-31,15-48.8,14.5c-1.1,0-2.3,0-3.1,0.8c-11.3,0-22.7,0-34,0c-6.3-1.6-12.8-1.1-19.2-2
		c-16.3-2.4-29.9-9.9-41.6-21.2c-8.6-8.2-12-18.3-9.9-30.1c0.5-2.8,1-5.6,1-8.4c-1-32.8,1.6-65.6,1.9-98.4c0.1-8.4-2-15.3-7.1-22
		c-10.1-13.3-19.4-27.2-29.6-40.4c-9.7-12.7-17.5-26.3-23.5-41.1c-11.4-28-24.3-55.5-35.8-83.5c-6-14.7-15.1-27.1-24.3-39.7
		c-17.3-23.8-36.4-46.3-50.5-72.4c-17.3-31.9-27.5-65.6-27.6-102.1c0-1.6,0.5-3.4-0.8-4.8c0-21,0-41.9,0-62.9
		c2.1-11,1.2-22.4,4.1-33.4c11.9-44.4,37.4-79.5,73-107.8c29.3-23.3,62.2-40.3,96.1-55.5c39.8-17.9,81-32.5,121.2-49.2
		c30.9-12.8,60.8-27.4,89.4-45c29.2-17.9,45.3-43.2,51.8-76.1c3.2-16.4,6.9-32.7,12.3-48.6c8.3-24.4,23-44.7,40.7-63
		c39-40.1,84.4-71.9,131.8-101.1c23.9-14.8,48.5-28.1,73-41.7C1405.4,293.2,1412.4,291.4,1419.4,289.2z"/>
	<text transform="matrix(1 0 0 1 276.1143 1501.8691)" class="st1 st2 st3">西澳</text>
	<text transform="matrix(1 0 0 1 61.8271 1590.4707)" class="st1 st2 st4">Western Australia</text>
	<line id="WA_line" class="st5" x1="939.5" y1="1336.6" x2="727.1" y2="1514.8"/>
	<line id="WA_line_hor" class="st5" x1="603.8" y1="1516.1" x2="727.1" y2="1516.1"/>
</g>
</svg>
